G75*
%MOIN*%
%OFA0B0*%
%FSLAX25Y25*%
%IPPOS*%
%LPD*%
%AMOC8*
5,1,8,0,0,1.08239X$1,22.5*
%
%ADD10R,0.05512X0.07087*%
%ADD11R,0.05800X0.02000*%
%ADD12R,0.02000X0.05800*%
%ADD13C,0.03543*%
%ADD14R,0.05906X0.05118*%
%ADD15R,0.04331X0.05512*%
%ADD16R,0.04724X0.04724*%
%ADD17C,0.06000*%
%ADD18C,0.20866*%
%ADD19R,0.05118X0.05906*%
%ADD20C,0.04429*%
%ADD21R,0.06299X0.05118*%
%ADD22C,0.07874*%
%ADD23R,0.07874X0.04331*%
%ADD24C,0.02575*%
%ADD25C,0.05000*%
%ADD26C,0.04724*%
%ADD27R,0.05000X0.01181*%
%ADD28C,0.00600*%
%ADD29C,0.02978*%
D10*
X0140237Y0081954D03*
X0150080Y0081954D03*
X0150080Y0094552D03*
X0140237Y0094552D03*
D11*
X0173537Y0092552D03*
X0173537Y0089452D03*
X0173537Y0086252D03*
X0173537Y0083152D03*
X0173537Y0079952D03*
X0173537Y0076852D03*
X0173537Y0073652D03*
X0173537Y0070552D03*
X0206937Y0070552D03*
X0206937Y0073652D03*
X0206937Y0076852D03*
X0206937Y0079952D03*
X0206937Y0083152D03*
X0206937Y0086252D03*
X0206937Y0089452D03*
X0206937Y0092552D03*
D12*
X0201237Y0098252D03*
X0198137Y0098252D03*
X0194937Y0098252D03*
X0191837Y0098252D03*
X0188637Y0098252D03*
X0185537Y0098252D03*
X0182337Y0098252D03*
X0179237Y0098252D03*
X0179237Y0064852D03*
X0182337Y0064852D03*
X0185537Y0064852D03*
X0188637Y0064852D03*
X0191837Y0064852D03*
X0194937Y0064852D03*
X0198137Y0064852D03*
X0201237Y0064852D03*
D13*
X0023938Y0007698D03*
X0029843Y0007698D03*
X0169607Y0007698D03*
X0175513Y0007698D03*
X0152383Y0281812D03*
X0152383Y0287717D03*
D14*
X0217300Y0074418D03*
X0217300Y0066938D03*
D15*
X0189174Y0278552D03*
X0181300Y0278552D03*
X0181300Y0289552D03*
X0189174Y0289552D03*
D16*
X0249135Y0099725D03*
X0257402Y0099725D03*
X0257402Y0087914D03*
X0249135Y0087914D03*
D17*
X0211930Y0172087D03*
X0211930Y0182087D03*
X0211930Y0192087D03*
X0211930Y0202087D03*
D18*
X0210355Y0141851D03*
X0100906Y0241064D03*
D19*
X0229843Y0099725D03*
X0237324Y0099725D03*
X0237324Y0087914D03*
X0229843Y0087914D03*
D20*
X0164686Y0282135D03*
X0158780Y0289221D03*
X0170591Y0289221D03*
D21*
X0123237Y0092292D03*
X0123237Y0084812D03*
D22*
X0015079Y0082009D02*
X0011143Y0082009D01*
X0011143Y0070198D02*
X0015079Y0070198D01*
D23*
X0014331Y0176162D03*
X0014331Y0186162D03*
X0014331Y0196162D03*
X0014331Y0206162D03*
X0014331Y0216162D03*
X0014331Y0226162D03*
X0014331Y0236162D03*
X0014331Y0246162D03*
X0014331Y0256162D03*
X0014331Y0266162D03*
X0014331Y0276162D03*
X0014331Y0286162D03*
X0085198Y0286162D03*
X0085198Y0276162D03*
X0085198Y0266162D03*
X0085198Y0256162D03*
X0085198Y0246162D03*
X0085198Y0236162D03*
X0085198Y0226162D03*
X0085198Y0216162D03*
X0085198Y0206162D03*
X0085198Y0196162D03*
X0085198Y0186162D03*
X0085198Y0176162D03*
D24*
X0239056Y0075316D03*
X0241812Y0073741D03*
X0241812Y0070591D03*
X0241812Y0067442D03*
X0239056Y0069017D03*
X0239056Y0065867D03*
X0239056Y0062717D03*
X0239056Y0059568D03*
X0241812Y0061143D03*
X0241812Y0057993D03*
X0241812Y0054843D03*
X0239056Y0053269D03*
D25*
X0241418Y0048032D03*
X0241418Y0080552D03*
D26*
X0258702Y0081969D03*
X0258702Y0046615D03*
D27*
X0233977Y0053465D03*
X0233977Y0055434D03*
X0233977Y0057402D03*
X0233977Y0059371D03*
X0233977Y0061339D03*
X0233977Y0063308D03*
X0233977Y0065276D03*
X0233977Y0067245D03*
X0233977Y0069213D03*
X0233977Y0071182D03*
X0233977Y0073150D03*
X0233977Y0075119D03*
D28*
X0238859Y0075119D01*
X0239056Y0075316D01*
X0233977Y0075119D02*
X0229670Y0075119D01*
X0221637Y0083152D01*
X0206937Y0083152D01*
X0206537Y0083552D01*
X0198237Y0083552D01*
X0196937Y0076852D02*
X0190637Y0083152D01*
X0173537Y0083152D01*
X0173137Y0083552D01*
X0168237Y0083552D01*
X0157237Y0094552D01*
X0150080Y0094552D01*
X0150080Y0099394D01*
X0150237Y0099552D01*
X0148237Y0101552D01*
X0137237Y0101552D01*
X0129237Y0093552D01*
X0129237Y0085552D01*
X0128237Y0084552D01*
X0123497Y0084552D01*
X0081237Y0084552D01*
X0065237Y0100552D01*
X0065237Y0209552D01*
X0071847Y0216162D01*
X0085198Y0216162D01*
X0108847Y0216162D01*
X0158780Y0266095D01*
X0184780Y0266095D01*
X0189237Y0270552D01*
X0189174Y0270615D01*
X0189174Y0278552D01*
X0181300Y0278552D02*
X0181300Y0289552D01*
X0170922Y0289552D01*
X0170591Y0289221D01*
X0158780Y0289221D02*
X0158780Y0266095D01*
X0152383Y0287717D02*
X0144402Y0287717D01*
X0122847Y0266162D01*
X0085198Y0266162D01*
X0085198Y0276162D02*
X0071847Y0276162D01*
X0058237Y0262552D01*
X0058237Y0097552D01*
X0098237Y0057552D01*
X0193237Y0057552D01*
X0194937Y0059252D01*
X0194937Y0064852D01*
X0198137Y0064852D02*
X0198137Y0058452D01*
X0194237Y0054552D01*
X0091237Y0054552D01*
X0051237Y0094552D01*
X0051237Y0265552D01*
X0071847Y0286162D01*
X0085198Y0286162D01*
X0035237Y0267552D02*
X0016627Y0286162D01*
X0014331Y0286162D01*
X0014331Y0276162D02*
X0008237Y0270068D01*
X0008237Y0165552D01*
X0013111Y0160678D01*
X0013111Y0082009D01*
X0013111Y0070198D02*
X0022237Y0059639D01*
X0022237Y0186552D01*
X0035237Y0199552D01*
X0035237Y0267552D01*
X0045237Y0220552D02*
X0045237Y0192552D01*
X0029843Y0177158D01*
X0029843Y0007698D01*
X0023938Y0007698D02*
X0023938Y0179253D01*
X0041237Y0196552D01*
X0041237Y0201552D01*
X0028237Y0206552D02*
X0026847Y0206162D01*
X0014331Y0206162D01*
X0071237Y0206552D02*
X0071627Y0206162D01*
X0085198Y0206162D01*
X0085198Y0196162D02*
X0071237Y0196162D01*
X0071237Y0186162D02*
X0085198Y0186162D01*
X0085198Y0176162D02*
X0101237Y0176162D01*
X0115847Y0176162D01*
X0140237Y0200552D01*
X0160237Y0220552D01*
X0214237Y0220552D01*
X0257402Y0177387D01*
X0257402Y0087914D01*
X0257402Y0099725D01*
X0249135Y0099725D02*
X0237324Y0099725D01*
X0229843Y0099725D02*
X0229843Y0195946D01*
X0214237Y0211552D01*
X0156237Y0211552D01*
X0140237Y0195552D01*
X0140237Y0189552D02*
X0157237Y0206552D01*
X0215237Y0206552D01*
X0224237Y0197552D01*
X0224237Y0091552D01*
X0227875Y0087914D01*
X0229843Y0087914D01*
X0237324Y0087914D02*
X0249135Y0087914D01*
X0239056Y0069213D02*
X0233977Y0069213D01*
X0224576Y0069213D01*
X0224237Y0069552D01*
X0224237Y0062552D01*
X0227418Y0059371D01*
X0233977Y0059371D01*
X0239056Y0059371D01*
X0239056Y0059568D01*
X0236497Y0063308D02*
X0239056Y0065867D01*
X0239056Y0069017D02*
X0239056Y0069213D01*
X0233977Y0065276D02*
X0230080Y0065276D01*
X0227520Y0062717D01*
X0233977Y0063308D02*
X0236497Y0063308D01*
X0224237Y0069552D02*
X0224237Y0075552D01*
X0217300Y0074418D02*
X0217300Y0078489D01*
X0215837Y0079952D01*
X0206937Y0079952D01*
X0206937Y0073652D02*
X0206837Y0073552D01*
X0200237Y0073552D01*
X0196937Y0076852D01*
X0173537Y0076852D01*
X0173137Y0079552D02*
X0167237Y0079552D01*
X0159237Y0087552D01*
X0145835Y0087552D01*
X0140237Y0081954D01*
X0150080Y0081954D02*
X0158835Y0081954D01*
X0167137Y0073652D01*
X0173537Y0073652D01*
X0173137Y0079552D02*
X0173537Y0079952D01*
X0181637Y0079952D01*
X0182237Y0080552D01*
X0181937Y0086252D02*
X0182237Y0086552D01*
X0181937Y0086252D02*
X0173537Y0086252D01*
X0179237Y0098252D02*
X0175937Y0101552D01*
X0166237Y0101552D01*
X0186237Y0106552D02*
X0137497Y0106552D01*
X0123237Y0092292D01*
X0123237Y0084812D02*
X0123497Y0084552D01*
X0175513Y0037717D02*
X0175513Y0007698D01*
X0175513Y0037717D02*
X0186339Y0048544D01*
X0206024Y0048544D01*
X0217300Y0059820D01*
X0217300Y0066938D01*
X0210586Y0073652D01*
X0206937Y0073652D01*
X0194937Y0098252D02*
X0194937Y0160252D01*
X0198237Y0163552D01*
X0216237Y0163552D01*
X0219237Y0166552D01*
X0219237Y0194780D01*
X0211930Y0202087D01*
X0211930Y0192087D02*
X0217237Y0186780D01*
X0217237Y0167552D01*
X0215237Y0165552D01*
X0197237Y0165552D01*
X0191837Y0160152D01*
X0191837Y0098252D01*
X0188637Y0098252D02*
X0188637Y0104152D01*
X0186237Y0106552D01*
X0189174Y0289552D02*
X0204237Y0289552D01*
D29*
X0204237Y0289552D03*
X0140237Y0200552D03*
X0140237Y0195552D03*
X0140237Y0189552D03*
X0101237Y0176162D03*
X0071237Y0186162D03*
X0071237Y0196162D03*
X0071237Y0206552D03*
X0045237Y0220552D03*
X0028237Y0206552D03*
X0041237Y0201552D03*
X0166237Y0101552D03*
X0182237Y0086552D03*
X0182237Y0080552D03*
X0198237Y0083552D03*
X0224237Y0075552D03*
X0227520Y0062717D03*
M02*
