%
M48
M72
T01C0.01378
T02C0.01575
T03C0.02362
T04C0.02559
T05C0.02953
T06C0.03150
T07C0.04000
T08C0.12598
%
T01
X101237Y176162
X71237Y186162
X71237Y196162
X71237Y206552
X45237Y220552
X28237Y206552
X41237Y201552
X140237Y200552
X140237Y195552
X140237Y189552
X166237Y101552
X182237Y86552
X182237Y80552
X198237Y83552
X224237Y75552
X227520Y62717
X204237Y289552
T02
X239056Y75316
X241812Y73741
X241812Y70591
X241812Y67442
X239056Y69017
X239056Y65867
X239056Y62717
X239056Y59568
X241812Y61143
X241812Y57993
X241812Y54843
X239056Y53269
T03
X23938Y7698
X29843Y7698
X169607Y7698
X175513Y7698
X152383Y281812
X152383Y287717
T04
X236497Y78229
X236497Y50355
T05
X164686Y282135
X158780Y289221
X170591Y289221
T06
X241418Y80552
X258702Y81969
X258702Y46615
X241418Y48032
T07
X211930Y172087
X211930Y182087
X211930Y192087
X211930Y202087
T08
X210355Y141851
X100906Y241064
M30
