G75*
%MOIN*%
%OFA0B0*%
%FSLAX25Y25*%
%IPPOS*%
%LPD*%
%AMOC8*
5,1,8,0,0,1.08239X$1,22.5*
%
%ADD10R,0.06312X0.07887*%
%ADD11R,0.06600X0.02800*%
%ADD12R,0.02800X0.06600*%
%ADD13C,0.04343*%
%ADD14R,0.06706X0.05918*%
%ADD15R,0.05131X0.06312*%
%ADD16R,0.05524X0.05524*%
%ADD17C,0.06800*%
%ADD18C,0.21666*%
%ADD19R,0.05918X0.06706*%
%ADD20C,0.05229*%
%ADD21R,0.07099X0.05918*%
%ADD22C,0.08674*%
%ADD23R,0.08674X0.05131*%
%ADD24C,0.03359*%
%ADD25C,0.05800*%
%ADD26C,0.05524*%
%ADD27R,0.05800X0.01981*%
%ADD28C,0.03778*%
D10*
X0140237Y0081954D03*
X0150080Y0081954D03*
X0150080Y0094552D03*
X0140237Y0094552D03*
D11*
X0173537Y0092552D03*
X0173537Y0089452D03*
X0173537Y0086252D03*
X0173537Y0083152D03*
X0173537Y0079952D03*
X0173537Y0076852D03*
X0173537Y0073652D03*
X0173537Y0070552D03*
X0206937Y0070552D03*
X0206937Y0073652D03*
X0206937Y0076852D03*
X0206937Y0079952D03*
X0206937Y0083152D03*
X0206937Y0086252D03*
X0206937Y0089452D03*
X0206937Y0092552D03*
D12*
X0201237Y0098252D03*
X0198137Y0098252D03*
X0194937Y0098252D03*
X0191837Y0098252D03*
X0188637Y0098252D03*
X0185537Y0098252D03*
X0182337Y0098252D03*
X0179237Y0098252D03*
X0179237Y0064852D03*
X0182337Y0064852D03*
X0185537Y0064852D03*
X0188637Y0064852D03*
X0191837Y0064852D03*
X0194937Y0064852D03*
X0198137Y0064852D03*
X0201237Y0064852D03*
D13*
X0023938Y0007698D03*
X0029843Y0007698D03*
X0169607Y0007698D03*
X0175513Y0007698D03*
X0152383Y0281812D03*
X0152383Y0287717D03*
D14*
X0217300Y0074418D03*
X0217300Y0066938D03*
D15*
X0189174Y0278552D03*
X0181300Y0278552D03*
X0181300Y0289552D03*
X0189174Y0289552D03*
D16*
X0249135Y0099725D03*
X0257402Y0099725D03*
X0257402Y0087914D03*
X0249135Y0087914D03*
D17*
X0211930Y0172087D03*
X0211930Y0182087D03*
X0211930Y0192087D03*
X0211930Y0202087D03*
D18*
X0210355Y0141851D03*
X0100906Y0241064D03*
D19*
X0229843Y0099725D03*
X0237324Y0099725D03*
X0237324Y0087914D03*
X0229843Y0087914D03*
D20*
X0164686Y0282135D03*
X0158780Y0289221D03*
X0170591Y0289221D03*
D21*
X0123237Y0092292D03*
X0123237Y0084812D03*
D22*
X0015079Y0082009D02*
X0011143Y0082009D01*
X0011143Y0070198D02*
X0015079Y0070198D01*
D23*
X0014331Y0176162D03*
X0014331Y0186162D03*
X0014331Y0196162D03*
X0014331Y0206162D03*
X0014331Y0216162D03*
X0014331Y0226162D03*
X0014331Y0236162D03*
X0014331Y0246162D03*
X0014331Y0256162D03*
X0014331Y0266162D03*
X0014331Y0276162D03*
X0014331Y0286162D03*
X0085198Y0286162D03*
X0085198Y0276162D03*
X0085198Y0266162D03*
X0085198Y0256162D03*
X0085198Y0246162D03*
X0085198Y0236162D03*
X0085198Y0226162D03*
X0085198Y0216162D03*
X0085198Y0206162D03*
X0085198Y0196162D03*
X0085198Y0186162D03*
X0085198Y0176162D03*
D24*
X0236497Y0078229D03*
X0236497Y0050355D03*
D25*
X0241418Y0048032D03*
X0241418Y0080552D03*
D26*
X0258702Y0081969D03*
X0258702Y0046615D03*
D27*
X0233977Y0053465D03*
X0233977Y0055434D03*
X0233977Y0057402D03*
X0233977Y0059371D03*
X0233977Y0061339D03*
X0233977Y0063308D03*
X0233977Y0065276D03*
X0233977Y0067245D03*
X0233977Y0069213D03*
X0233977Y0071182D03*
X0233977Y0073150D03*
X0233977Y0075119D03*
D28*
X0224237Y0075552D03*
X0227520Y0062717D03*
X0198237Y0083552D03*
X0182237Y0086552D03*
X0182237Y0080552D03*
X0166237Y0101552D03*
X0101237Y0176162D03*
X0071237Y0186162D03*
X0071237Y0196162D03*
X0071237Y0206552D03*
X0045237Y0220552D03*
X0028237Y0206552D03*
X0041237Y0201552D03*
X0140237Y0200552D03*
X0140237Y0195552D03*
X0140237Y0189552D03*
X0204237Y0289552D03*
M02*
